# xmcd
# 
# Track frame offsets:
#     150
#     15594
#     32543
#     51358
#     70175
#     85189
#     102051
#     118783
#     135343
#     146007
#     164173
# 
# Disc length: 2407
# 
# Revision: 1
# Processed by: cddbd v1.5.2PL0 Copyright (c) Steve Scherf et al.
# Submitted via: fre:ac v1.0.31
# 
DISCID=9109650b
DTITLE=Chayanne - En Todo Estaré
DYEAR=2014
DGENRE=Pop
TTITLE0=Madre Tierra (Oye)
TTITLE1=Humanos A Marte
TTITLE2=Tu Respiración
TTITLE3=Bailando Dos Corazones
TTITLE4=Mareaito Con Tu Amor
TTITLE5=En Todo Estaré
TTITLE6=Quiero Bailar Contigo
TTITLE7=Dímelo
TTITLE8=De Todas
TTITLE9=Infinita Tú
TTITLE10=Tubuduru
EXTD=
EXTT0=
EXTT1=
EXTT2=
EXTT3=
EXTT4=
EXTT5=
EXTT6=
EXTT7=
EXTT8=
EXTT9=
EXTT10=
PLAYORDER=
